<?xml version="1.0" standalone="no"?><!DOCTYPE svg PUBLIC "-//W3C//DTD SVG 1.1//EN" "http://www.w3.org/Graphics/SVG/1.1/DTD/svg11.dtd"><svg t="1612086727071" class="icon" viewBox="0 0 1024 1024" version="1.1" xmlns="http://www.w3.org/2000/svg" p-id="5920" width="22" height="22" xmlns:xlink="http://www.w3.org/1999/xlink"><defs><style type="text/css"></style></defs><path d="M742.4 409.6H716.8V332.8C716.8 205.7728 613.4272 102.4 486.4 102.4S256 205.7728 256 332.8V409.6h-25.6C188.0576 409.6 153.6 444.0576 153.6 486.4v409.6c0 42.3424 34.4576 76.8 76.8 76.8h512c42.3424 0 76.8-34.4576 76.8-76.8v-409.6c0-42.3424-34.4576-76.8-76.8-76.8zM307.2 332.8C307.2 233.984 387.584 153.6 486.4 153.6S665.6 233.984 665.6 332.8V409.6H307.2V332.8z m460.8 563.2a25.6 25.6 0 0 1-25.6 25.6h-512a25.6 25.6 0 0 1-25.6-25.6v-409.6a25.6 25.6 0 0 1 25.6-25.6h512a25.6 25.6 0 0 1 25.6 25.6v409.6z" p-id="5921" fill="#2c2c2c"></path></svg>