<?xml version="1.0" standalone="no"?><!DOCTYPE svg PUBLIC "-//W3C//DTD SVG 1.1//EN" "http://www.w3.org/Graphics/SVG/1.1/DTD/svg11.dtd"><svg t="1612086662619" class="icon" viewBox="0 0 1024 1024" version="1.1" xmlns="http://www.w3.org/2000/svg" p-id="4500" width="22" height="22" xmlns:xlink="http://www.w3.org/1999/xlink"><defs><style type="text/css"></style></defs><path d="M322.816 453.973333V367.274667c0-54.101333 21.248-103.253333 55.552-138.88A185.216 185.216 0 0 1 512 170.666667a185.173333 185.173333 0 0 1 133.632 57.770666 200.106667 200.106667 0 0 1 55.552 138.88 16.085333 16.085333 0 0 1-15.957333 15.957334 15.573333 15.573333 0 0 1-15.36-15.957334 167.253333 167.253333 0 0 0-46.08-116.138666c-29.013333-29.482667-68.053333-47.957333-111.786667-47.957334a154.837333 154.837333 0 0 0-111.786667 47.957334A167.210667 167.210667 0 0 0 354.133333 367.317333v86.613334h355.925334c15.957333 0 30.165333 6.784 40.789333 17.834666 10.666667 11.093333 17.152 25.813333 17.152 42.410667v279.552c0 15.957333-6.485333 31.36-17.152 42.410667-10.624 10.453333-24.832 17.194667-40.789333 17.194666H313.941333c-15.957333 0-30.762667-6.741333-40.789333-17.194666A60.586667 60.586667 0 0 1 256 793.728v-279.552c0-16.64 6.485333-31.36 17.152-42.410667a56.32 56.32 0 0 1 40.789333-17.834666h8.874667z m387.242667 32.554667H313.941333a25.770667 25.770667 0 0 0-18.944 7.978667 29.098667 29.098667 0 0 0-7.68 19.669333v279.594667c0 7.338667 2.986667 14.122667 7.68 19.072a26.88 26.88 0 0 0 18.944 7.978666h396.117334c7.082667 0 13.653333-3.072 18.944-7.978666a27.434667 27.434667 0 0 0 7.68-19.072V514.133333a29.098667 29.098667 0 0 0-7.68-19.712 27.904 27.904 0 0 0-18.944-7.936z" fill="#2c2c2c" p-id="4501"></path></svg>