<?xml version="1.0" standalone="no"?><!DOCTYPE svg PUBLIC "-//W3C//DTD SVG 1.1//EN" "http://www.w3.org/Graphics/SVG/1.1/DTD/svg11.dtd"><svg t="1612087413281" class="icon" viewBox="0 0 1024 1024" version="1.1" xmlns="http://www.w3.org/2000/svg" p-id="7007" width="22" height="22" xmlns:xlink="http://www.w3.org/1999/xlink"><defs><style type="text/css"></style></defs><path d="M421.12 590.506667L362.666667 648.533333a329.386667 329.386667 0 0 1 23.466666-409.173333 8.533333 8.533333 0 0 0-9.813333-13.226667 310.186667 310.186667 0 0 0-83.2 492.373334L241.92 768a17.066667 17.066667 0 0 0 11.946667 29.013333h179.2a17.066667 17.066667 0 0 0 17.066666-17.066666v-179.2a17.066667 17.066667 0 0 0-29.013333-10.24zM602.88 433.493333L661.333333 375.466667a329.386667 329.386667 0 0 1-21.333333 409.173333 8.533333 8.533333 0 0 0 9.813333 13.226667 310.186667 310.186667 0 0 0 81.066667-492.373334L782.08 256a17.066667 17.066667 0 0 0-11.946667-29.013333h-179.2a17.066667 17.066667 0 0 0-17.066666 17.066666v179.2a17.066667 17.066667 0 0 0 29.013333 10.24z" p-id="7008" fill="#2c2c2c"></path></svg>